<svg width="210" height="42" viewBox="0 0 210 42" fill="none" xmlns="http://www.w3.org/2000/svg">
<g clip-path="url(#clip0_347_253)">
<mask id="mask0_347_253" style="mask-type:luminance" maskUnits="userSpaceOnUse" x="-16" y="-6" width="239" height="54">
<path d="M222.267 -5.88477H-15.392V47.2746H222.267V-5.88477Z" fill="white"/>
</mask>
<g mask="url(#mask0_347_253)">
<path d="M53.6789 7.77751C51.8783 9.60297 50.4226 11.5533 47.8751 11.9761C47.1944 12.0881 46.5057 12.1427 45.816 12.1394C39.6195 12.1394 33.4231 12.1394 27.2266 12.1394C26.5973 12.1232 25.9696 12.2108 25.3686 12.3988C24.6982 12.6462 24.1346 13.12 23.7746 13.7389C23.4146 14.3578 23.2806 15.0831 23.3957 15.7903C23.5126 16.4935 23.8576 17.1383 24.3771 17.6247C24.8966 18.1111 25.5616 18.4119 26.2689 18.4805C26.5945 18.4805 26.9297 18.4805 27.2266 18.4805H45.95C47.8703 18.4972 49.7112 19.2514 51.0942 20.5879C52.4772 21.9245 53.2972 23.7418 53.3855 25.6662C53.4738 27.5906 52.8237 29.4759 51.569 30.9342C50.3143 32.3926 48.5502 33.3133 46.6396 33.5069C45.9596 33.5645 45.2605 33.603 44.5709 33.603H13.4163C15.5041 31.2683 17.4195 29.1354 20.7045 29.145C27.2936 29.145 33.8828 29.145 40.4719 29.145C41.0674 29.1632 41.6558 29.0106 42.1679 28.7052C42.6801 28.3997 43.0947 27.954 43.3632 27.4204C43.6317 26.8868 43.7428 26.2874 43.6836 25.6926C43.6244 25.0978 43.3973 24.5324 43.029 24.0625C42.6761 23.6272 42.2236 23.2837 41.7101 23.0613C41.1966 22.8388 40.6371 22.7439 40.0792 22.7847H21.327C19.4184 22.8504 17.5578 22.1765 16.1313 20.9028C14.7047 19.6291 13.8216 17.8534 13.6653 15.944C13.509 14.0754 14.0478 12.2149 15.1779 10.7212C16.3079 9.22745 17.9491 8.20623 19.7851 7.85437C20.316 7.75957 20.855 7.71773 21.3941 7.72947H52.8073C53.0468 7.72947 53.2575 7.75829 53.6789 7.77751Z" fill="white"/>
<path d="M192.826 33.507H191.734C188.67 33.507 185.595 33.507 182.531 33.507C182.227 33.5455 181.919 33.4908 181.647 33.3502C181.376 33.2095 181.153 32.9895 181.008 32.7192C180.117 31.2108 179.092 29.7889 178.183 28.2997C178.045 28.0237 177.829 27.7955 177.561 27.6447C177.292 27.494 176.985 27.4276 176.679 27.4542C171.833 27.4542 166.987 27.4542 162.141 27.4542H160.972C162.888 25.254 164.64 23.198 167.676 23.15C169.688 23.15 171.708 23.15 173.72 23.15C174.017 23.15 174.304 23.15 174.735 23.1019L167.782 12.3701L160.599 23.7841C158.683 26.7721 156.825 29.7408 154.977 32.7384C154.857 32.9905 154.664 33.2004 154.423 33.3409C154.182 33.4814 153.905 33.546 153.627 33.5263C151.711 33.5263 149.796 33.5263 147.88 33.5263L146.817 33.507C147.516 32.4118 148.148 31.4318 148.733 30.4614C153.477 23.134 158.221 15.7969 162.964 8.4502C163.082 8.23143 163.26 8.05198 163.478 7.93413C163.696 7.81628 163.944 7.76522 164.19 7.78727C167.913 7.78727 171.645 7.78727 175.386 7.78727C175.618 7.75931 175.852 7.801 176.061 7.90705C176.269 8.0131 176.44 8.17873 176.555 8.38295C181.873 16.5495 187.166 24.7096 192.434 32.8633C192.587 33.0363 192.663 33.2188 192.826 33.507Z" fill="white"/>
<path d="M104.898 7.71973H114.561V29.1449H115.672C122.75 29.1449 129.818 29.1449 136.886 29.1449C137.968 29.1121 139.046 29.3004 140.053 29.6985C141.061 30.0965 141.977 30.6959 142.747 31.4603C143.35 32.0368 144.021 32.5556 144.662 33.1032L144.461 33.4011H104.898V7.71973Z" fill="white"/>
<path d="M9.77692 33.4492H0.199707V7.78711H9.77692V33.4492Z" fill="white"/>
<path d="M78.5796 33.843C74.8828 33.843 71.186 33.9199 67.4892 33.843C64.0683 33.6173 60.8698 32.0632 58.5724 29.5106C56.2751 26.9579 55.0598 23.6076 55.1844 20.1707C55.309 16.7339 56.7638 13.481 59.2399 11.1025C61.7161 8.72408 65.0187 7.40722 68.4469 7.43148H88.9325C92.166 7.41273 95.2936 8.58726 97.7199 10.7316C100.146 12.8758 101.702 15.8402 102.091 19.0605C102.48 22.2808 101.676 25.5322 99.8303 28.196C97.985 30.8597 95.2278 32.7499 92.0834 33.5067C90.9087 33.7536 89.7114 33.876 88.5111 33.8718C85.1974 33.8718 81.8933 33.8718 78.5796 33.8718V33.843ZM78.5796 33.1513C81.9507 33.1513 85.2836 33.1513 88.6835 33.1513C89.5237 33.1549 90.3628 33.0906 91.1927 32.9591C94.3447 32.4794 97.1931 30.8052 99.151 28.2813C101.109 25.7574 102.027 22.5762 101.717 19.3933C101.406 16.2104 99.89 13.2683 97.4813 11.1733C95.0726 9.07835 91.9545 7.9901 88.7697 8.13284C82.0657 8.13284 75.2946 8.13284 68.5618 8.13284C67.8123 8.13622 67.0637 8.18757 66.3207 8.28657C63.1625 8.71181 60.287 10.3357 58.2863 12.8238C56.2857 15.3119 55.3121 18.4749 55.5662 21.6614C55.8203 24.8479 57.2826 27.8154 59.652 29.9529C62.0215 32.0903 65.1177 33.235 68.3032 33.1513H78.5796Z" fill="white"/>
<path d="M208.159 9.24735C207.652 10.1601 207.202 11.0728 206.579 12.1297L204.884 8.97834V13.0808H203.677V6.84543C204.51 6.60524 205.152 6.65328 205.506 7.64287C205.821 8.34982 206.179 9.03648 206.579 9.69891C206.981 9.04618 207.336 8.36551 207.642 7.66208C207.996 6.70132 208.648 6.62445 209.558 6.82621V13.0808H208.341V9.23774L208.159 9.24735Z" fill="white"/>
<path d="M197.308 13.129V6.7591C198.936 6.884 200.756 6.17303 201.867 7.92163C202.26 8.51876 202.47 9.21871 202.47 9.93444C202.47 10.6502 202.26 11.3501 201.867 11.9473C200.775 13.7055 198.946 12.9945 197.308 13.129ZM198.697 11.8704C199.425 11.8704 200.383 12.1394 200.612 11.3708C200.901 10.4318 200.901 9.42743 200.612 8.48848C200.373 7.74869 199.434 7.90242 198.697 8.04653V11.8704Z" fill="white"/>
<path d="M78.5413 29.5103H72.3161C70.1396 29.4732 68.0533 28.6318 66.4568 27.1473C64.8604 25.6628 63.8661 23.6396 63.6644 21.4653C63.4627 19.2909 64.0678 17.1184 65.3639 15.3639C66.6599 13.6094 68.5556 12.3963 70.6879 11.957C71.4236 11.8185 72.1709 11.7509 72.9194 11.7553C76.7503 11.7553 80.5812 11.8225 84.4121 11.7553C85.5841 11.7078 86.7538 11.8947 87.8531 12.3053C88.9523 12.7158 89.9592 13.3417 90.8149 14.1465C91.6706 14.9513 92.3581 15.9189 92.8374 16.9929C93.3166 18.0669 93.5779 19.2258 93.6062 20.4022C93.7076 22.7066 92.893 24.9571 91.3415 26.6594C89.79 28.3618 87.6284 29.3768 85.3315 29.4815C83.0521 29.5871 80.7919 29.5103 78.5413 29.5103ZM72.498 27.8962C73.4433 27.9063 74.3812 27.729 75.2578 27.3743C76.1345 27.0196 76.9326 26.4946 77.6064 25.8294C78.2801 25.1642 78.8162 24.372 79.1837 23.4984C79.5512 22.6247 79.743 21.6867 79.748 20.7385C79.748 18.8197 78.9882 16.9796 77.6357 15.6228C76.2833 14.2661 74.449 13.5039 72.5363 13.5039C70.6237 13.5039 68.7894 14.2661 67.437 15.6228C66.0845 16.9796 65.3247 18.8197 65.3247 20.7385C65.326 21.6813 65.5126 22.6147 65.874 23.485C66.2355 24.3554 66.7645 25.1456 67.4308 25.8105C68.0972 26.4754 68.8878 27.0019 69.7573 27.3598C70.6268 27.7177 71.5582 27.9 72.498 27.8962Z" fill="white"/>
</g>
</g>
<defs>
<clipPath id="clip0_347_253">
<rect width="210" height="42" fill="white"/>
</clipPath>
</defs>
</svg>
