<?xml version="1.0" standalone="no"?>
<!DOCTYPE svg PUBLIC "-//W3C//DTD SVG 20010904//EN"
 "http://www.w3.org/TR/2001/REC-SVG-20010904/DTD/svg10.dtd">
<svg version="1.0" xmlns="http://www.w3.org/2000/svg"
 width="1280.000000pt" height="240.000000pt" viewBox="0 0 1280.000000 240.000000"
 preserveAspectRatio="xMidYMid meet">

<g transform="translate(0.000000,240.000000) scale(0.100000,-0.100000)"
fill="#000000" stroke="none">
<path d="M4228 1920 c-228 -39 -433 -193 -534 -400 -58 -117 -69 -170 -69
-325 1 -125 4 -149 28 -220 38 -115 91 -199 182 -290 91 -91 174 -143 290
-183 l80 -27 699 -3 c670 -3 702 -2 778 17 259 66 456 258 530 518 18 62 22
103 22 198 -1 107 -4 130 -32 216 -77 233 -267 415 -507 485 -54 16 -124 18
-740 20 -374 1 -701 -2 -727 -6z m1342 -40 c174 -18 297 -77 420 -200 133
-133 190 -262 198 -447 6 -137 -13 -231 -68 -341 -88 -176 -248 -306 -441
-359 -58 -16 -125 -18 -749 -18 -758 0 -735 -2 -875 66 -178 85 -301 225 -362
414 -33 102 -37 273 -10 374 75 276 312 481 590 511 104 11 1197 11 1297 0z"/>
<path d="M4428 1671 c-167 -54 -293 -192 -334 -367 -50 -214 64 -451 263 -549
107 -52 158 -57 608 -53 394 4 412 5 469 26 211 79 335 250 336 463 0 232
-138 418 -359 483 -47 14 -120 16 -490 15 -393 0 -442 -2 -493 -18z m344 -78
c274 -129 344 -477 141 -694 -97 -104 -198 -144 -348 -137 -82 3 -101 8 -168
41 -268 133 -328 487 -117 698 97 98 180 130 325 126 88 -2 108 -6 167 -34z"/>
<path d="M11500 1750 l0 -180 93 0 c112 0 151 17 184 80 46 86 21 230 -46 264
-21 12 -59 16 -131 16 l-100 0 0 -180z m199 101 c25 -25 35 -89 21 -139 -15
-59 -32 -72 -96 -72 l-54 0 0 115 0 115 55 0 c41 0 60 -5 74 -19z"/>
<path d="M11860 1750 l0 -180 35 0 35 0 1 143 1 142 29 -120 c16 -66 32 -130
34 -143 5 -20 11 -23 42 -20 l36 3 33 140 32 140 1 -142 1 -143 35 0 35 0 0
180 0 180 -54 0 -54 0 -33 -137 c-18 -76 -34 -131 -36 -123 -2 8 -16 69 -31
135 l-28 120 -57 3 -57 3 0 -181z"/>
<path d="M580 1200 l0 -710 270 0 270 0 0 710 0 710 -270 0 -270 0 0 -710z"/>
<path d="M1576 1889 c-291 -100 -381 -463 -168 -682 26 -27 66 -60 90 -74 91
-54 90 -54 730 -53 385 0 607 -3 632 -10 46 -12 95 -51 115 -91 19 -36 19
-122 0 -159 -8 -16 -32 -42 -52 -57 l-36 -28 -626 -5 -626 -5 -60 -24 c-47
-19 -81 -45 -160 -122 l-100 -99 912 0 c633 0 928 3 965 11 134 28 236 107
295 227 37 73 38 80 38 181 0 88 -4 116 -23 164 -48 119 -178 222 -311 247
-32 6 -285 10 -625 10 l-571 0 -40 23 c-92 52 -114 188 -42 265 55 59 27 57
707 62 l625 5 65 32 c46 23 90 58 150 118 l85 85 -955 0 c-934 -1 -956 -1
-1014 -21z"/>
<path d="M6380 1200 l0 -710 1101 0 1100 0 -21 30 c-35 50 -160 151 -219 179
l-56 26 -682 3 -683 3 0 589 0 590 -270 0 -270 0 0 -710z"/>
<path d="M9170 1208 c-250 -385 -456 -704 -458 -708 -4 -11 401 -20 414 -9 7
5 175 268 375 584 199 317 366 572 370 568 4 -5 91 -136 193 -293 l186 -285
-228 -6 c-293 -7 -314 -14 -452 -153 l-85 -86 463 0 463 0 107 -165 107 -165
313 0 c177 0 312 4 310 9 -1 5 -208 324 -458 709 l-455 701 -355 0 -355 1
-455 -702z"/>
</g>
</svg>
