<?xml version="1.0" standalone="no"?>
<!DOCTYPE svg PUBLIC "-//W3C//DTD SVG 20010904//EN"
 "http://www.w3.org/TR/2001/REC-SVG-20010904/DTD/svg10.dtd">
<svg version="1.0" xmlns="http://www.w3.org/2000/svg"
 width="1080.000000pt" height="1080.000000pt" viewBox="0 0 1080.000000 1080.000000"
 preserveAspectRatio="xMidYMid meet">

<g transform="translate(0.000000,1080.000000) scale(0.100000,-0.100000)"
fill="#000000" stroke="none">
<path d="M3183 7765 c-7 -7 -43 -16 -80 -20 -37 -4 -81 -11 -98 -16 -16 -5
-55 -13 -85 -19 -62 -11 -230 -62 -305 -92 -27 -11 -63 -25 -80 -31 -16 -7
-94 -44 -172 -84 -239 -120 -419 -253 -630 -465 -170 -171 -237 -255 -371
-468 -45 -71 -101 -181 -141 -275 -12 -27 -28 -62 -36 -77 -8 -14 -15 -31 -15
-38 0 -7 -6 -26 -14 -43 -47 -108 -113 -380 -126 -524 -4 -49 -13 -89 -19 -91
-14 -5 -15 -42 -1 -42 6 0 10 -7 10 -15 0 -8 -4 -15 -10 -15 -6 0 -10 -58 -10
-155 0 -97 4 -155 10 -155 6 0 10 -7 10 -15 0 -8 -4 -15 -10 -15 -13 0 -13
-37 0 -42 5 -1 14 -46 20 -99 5 -53 16 -123 25 -155 8 -32 15 -67 15 -79 0
-11 6 -40 14 -65 8 -25 25 -81 37 -125 13 -44 29 -89 36 -100 7 -11 13 -25 13
-33 0 -12 17 -55 57 -142 9 -19 23 -51 32 -70 79 -177 274 -457 439 -632 210
-223 558 -460 832 -568 30 -12 69 -27 85 -35 68 -29 131 -49 295 -91 111 -29
299 -54 475 -65 120 -7 861 -9 2220 -6 2039 3 2040 3 2175 25 240 39 467 102
616 173 23 10 46 19 51 19 14 0 231 115 283 150 14 9 52 34 85 55 373 241 733
673 900 1080 151 366 211 695 198 1090 -5 182 -44 433 -88 570 -7 22 -23 74
-36 115 -12 41 -29 86 -36 100 -7 14 -13 31 -13 38 0 8 -6 26 -14 40 -8 15
-34 68 -58 117 -176 372 -467 715 -806 950 -80 56 -157 104 -207 131 -27 14
-72 39 -100 54 -27 16 -57 29 -65 29 -9 1 -21 6 -28 13 -6 6 -26 17 -44 24
-18 6 -58 22 -88 33 -165 65 -357 115 -535 140 -38 6 -71 15 -73 21 -6 16
-4489 14 -4496 -2 -5 -10 -7 -10 -12 0 -7 15 -16 15 -31 -3z m4417 -124 c192
-22 267 -33 290 -42 14 -5 48 -14 75 -19 70 -13 180 -44 245 -70 30 -12 67
-25 81 -30 14 -4 34 -12 45 -17 10 -6 42 -20 69 -33 28 -13 57 -27 65 -31 8
-4 40 -20 70 -36 30 -15 74 -40 96 -55 23 -16 45 -28 48 -28 3 0 30 -16 59
-36 120 -85 239 -184 348 -293 133 -134 244 -275 355 -451 46 -73 53 -84 59
-100 13 -30 25 -55 34 -70 5 -8 12 -22 15 -30 3 -8 10 -22 14 -30 23 -41 42
-83 42 -92 0 -6 8 -29 19 -52 25 -55 41 -104 50 -146 4 -19 12 -44 18 -55 6
-11 14 -42 18 -70 5 -27 14 -64 21 -82 8 -18 14 -52 14 -76 0 -23 7 -70 16
-102 18 -72 23 -531 5 -577 -6 -15 -13 -58 -17 -95 -3 -38 -12 -88 -19 -113
-8 -25 -17 -65 -20 -90 -4 -25 -11 -50 -16 -56 -5 -6 -13 -31 -18 -55 -10 -47
-33 -114 -56 -166 -8 -18 -21 -48 -29 -65 -35 -84 -96 -207 -105 -213 -6 -3
-11 -13 -11 -21 0 -8 -8 -27 -19 -42 -10 -15 -36 -54 -57 -87 -126 -199 -344
-436 -534 -580 -130 -98 -167 -125 -176 -125 -4 0 -15 -6 -23 -14 -28 -25
-235 -134 -328 -172 -18 -8 -48 -21 -65 -29 -18 -8 -46 -17 -62 -21 -16 -4
-41 -13 -55 -20 -14 -8 -35 -14 -46 -14 -11 0 -33 -7 -49 -15 -15 -8 -38 -15
-49 -15 -12 0 -57 -9 -102 -19 -224 -53 -128 -51 -2459 -51 -2271 0 -2167 -2
-2401 40 -57 10 -126 27 -170 42 -16 6 -48 14 -70 18 -44 10 -128 39 -162 58
-12 7 -30 12 -41 12 -11 0 -25 7 -32 15 -7 8 -19 15 -27 15 -8 0 -31 9 -51 20
-20 10 -44 21 -52 24 -8 3 -23 10 -33 16 -9 5 -25 14 -35 20 -127 70 -226 136
-362 242 -92 72 -321 307 -401 413 -81 107 -127 179 -203 317 -42 77 -43 79
-66 133 -12 28 -28 63 -36 78 -8 16 -14 35 -14 43 0 8 -9 31 -20 51 -11 21
-20 47 -20 58 -1 11 -7 31 -15 45 -8 14 -15 39 -15 55 0 17 -7 41 -15 55 -8
14 -14 36 -15 50 0 13 -9 60 -19 105 -23 96 -45 306 -44 430 0 95 17 286 34
370 5 28 16 82 23 120 6 39 17 80 24 92 7 12 12 34 12 50 0 15 7 41 15 57 8
15 15 36 15 45 1 9 9 34 20 56 11 22 19 45 20 52 0 6 6 24 14 40 7 15 21 44
29 63 31 69 68 146 86 175 10 17 27 44 37 61 10 18 33 56 51 85 50 83 194 265
287 360 109 112 203 193 336 289 30 22 60 43 66 47 10 8 44 29 79 48 11 6 38
22 60 36 22 14 81 45 130 68 50 23 102 49 117 57 14 7 35 14 45 14 10 0 27 6
38 14 11 7 36 17 55 21 19 4 40 11 46 16 6 5 31 13 55 18 24 5 58 14 74 19 56
19 225 49 405 71 87 11 4195 12 4290 2z"/>
<path d="M4160 6950 c-106 -7 -188 -20 -270 -45 -25 -7 -61 -16 -80 -20 -19
-4 -44 -14 -55 -21 -11 -8 -28 -14 -38 -14 -10 0 -31 -6 -45 -14 -15 -8 -65
-33 -112 -56 -47 -23 -104 -55 -128 -71 -24 -16 -46 -29 -49 -29 -3 0 -46 -33
-97 -72 -91 -73 -186 -164 -239 -229 -15 -19 -39 -47 -53 -64 -45 -53 -118
-171 -159 -255 -15 -30 -31 -62 -36 -70 -11 -18 -14 -27 -41 -100 -53 -142
-63 -180 -79 -280 -6 -36 -14 -84 -19 -107 -16 -72 -22 -255 -11 -335 6 -43
16 -113 21 -155 6 -43 17 -98 25 -122 8 -25 15 -54 15 -65 0 -12 7 -34 15 -50
8 -15 15 -34 15 -41 0 -21 93 -223 133 -290 32 -53 72 -113 91 -136 12 -14 28
-36 36 -49 73 -110 256 -276 420 -380 82 -53 90 -57 150 -86 30 -14 67 -33 82
-40 14 -8 32 -14 40 -14 7 0 26 -7 42 -15 16 -9 46 -20 65 -24 20 -5 50 -14
66 -19 17 -6 66 -19 110 -29 75 -17 161 -18 1505 -18 1334 0 1428 1 1469 18
24 9 58 17 75 17 17 1 42 7 56 15 14 8 34 14 45 15 11 0 37 9 58 20 20 11 43
20 51 20 8 0 27 6 43 14 15 8 53 26 83 41 30 15 69 35 85 46 17 10 37 22 45
26 72 34 295 222 375 316 57 67 150 192 166 222 5 11 21 38 34 60 72 122 157
343 175 460 5 27 14 70 20 95 20 76 17 470 -4 566 -34 153 -55 233 -72 266 -8
14 -14 34 -14 43 0 9 -7 29 -15 43 -8 15 -19 38 -25 52 -5 14 -14 33 -20 43
-23 39 -30 53 -45 82 -66 132 -284 388 -420 492 -53 40 -136 97 -155 107 -8 4
-33 18 -55 31 -22 13 -65 35 -95 50 -30 15 -68 33 -83 41 -16 8 -35 14 -43 14
-9 0 -25 6 -37 12 -26 15 -97 35 -267 75 -70 16 -167 18 -1360 19 -707 0
-1332 -2 -1390 -6z m2670 -331 c19 -6 64 -17 100 -24 162 -32 392 -148 544
-275 48 -41 170 -164 186 -189 8 -13 30 -42 48 -64 76 -93 191 -332 208 -432
4 -22 11 -45 16 -52 8 -10 40 -257 40 -308 -1 -68 -27 -259 -43 -308 -11 -31
-19 -66 -19 -76 0 -11 -4 -22 -9 -26 -5 -3 -12 -20 -16 -38 -7 -31 -25 -75
-66 -159 -110 -227 -352 -476 -556 -573 -17 -8 -34 -19 -38 -25 -3 -5 -13 -10
-22 -10 -9 0 -24 -6 -32 -13 -14 -12 -43 -23 -161 -67 -19 -7 -55 -16 -80 -20
-25 -4 -58 -13 -75 -20 -22 -10 -89 -13 -240 -14 -174 0 -218 3 -258 17 -26 9
-62 17 -80 17 -18 0 -42 7 -53 15 -10 8 -29 15 -41 15 -19 0 -154 56 -193 80
-8 5 -36 21 -62 34 -108 57 -329 252 -395 349 -15 23 -31 44 -34 47 -27 22
-159 270 -159 301 0 8 -7 23 -15 33 -8 11 -15 31 -15 45 -1 14 -7 37 -15 51
-8 14 -14 39 -15 57 0 17 -7 60 -17 95 -22 85 -22 299 0 388 9 36 18 81 21
100 6 50 26 121 42 152 8 14 14 31 14 38 0 10 32 80 59 130 4 8 16 32 27 54
16 34 34 60 116 171 66 90 320 315 355 315 4 0 14 6 22 14 21 18 152 86 168
86 6 0 24 6 40 14 42 21 91 37 158 51 33 8 74 18 90 23 42 14 411 15 455 1z"/>
</g>
</svg>
