<svg width="555" height="258" viewBox="0 0 555 258" fill="none" xmlns="http://www.w3.org/2000/svg">
<g clip-path="url(#clip0_961_788)">
<path d="M507.245 107.39L467.447 108.15C462.255 108.25 457.288 110.283 453.521 113.85C449.754 117.418 447.459 122.262 447.087 127.432L442.815 128.085C442.503 128.085 442.196 128.138 441.893 128.245C441.58 123.275 439.49 118.582 436.004 115.019C432.517 111.456 427.866 109.26 422.895 108.829L391.722 106.164L393.297 90.1737C393.749 85.9796 393.587 81.7421 392.816 77.5945C395.49 71.8817 397.105 65.7326 397.583 59.4451C398.232 53.5341 398.254 47.5712 397.649 41.6555C396.9 33.8202 393.652 26.4314 388.384 20.5746C382.67 14.3249 374.78 10.6604 364.927 9.72761L337.144 7.06251C336.337 6.97846 335.525 6.9473 334.714 6.96923C330.513 7.04285 326.433 8.38644 323.012 10.8226C319.592 13.2588 316.992 16.673 315.556 20.6146C314.876 15.7172 312.471 11.2215 308.772 7.93266C305.073 4.64378 300.322 2.77647 295.37 2.66509L277.694 2.29197C277.418 2.29197 277.137 2.29197 276.853 2.29197C275.637 2.31373 274.427 2.44305 273.235 2.67841C271.782 2.32648 270.296 2.13434 268.802 2.10541L251.126 1.7323H250.285C244.909 1.83778 239.782 4.01463 235.977 7.80728C232.172 11.5999 229.984 16.7144 229.872 22.0804L229.792 25.8781C227.544 22.6851 224.82 19.854 221.714 17.4831C214.285 11.9531 205.182 9.13124 195.921 9.48775C193.358 9.54404 190.801 9.78004 188.271 10.194C171.957 12.8591 163.239 21.1209 158.806 27.6238C152.611 36.7118 150.529 47.9452 152.638 60.9376L159.5 103.579V103.859C154.47 102.073 149.15 101.241 143.813 101.407L120.743 101.86C116.1 101.955 111.622 103.595 108.02 106.522C104.418 109.448 101.899 113.492 100.864 118.011L76.219 121.729C70.8787 117.344 62.7482 113.373 50.9862 113.014L25.9671 112.241C25.62 112.241 25.2729 112.241 24.9258 112.241C19.5846 112.344 14.4878 114.494 10.6905 118.244C6.89313 121.995 4.68601 127.059 4.52596 132.389L1.74903 223.149C1.58 228.659 3.61018 234.009 7.39313 238.025C11.1761 242.041 16.402 244.393 21.9219 244.563L46.3135 245.309C47.2213 245.309 48.1425 245.309 48.9836 245.309C57.4706 245.343 65.7443 242.658 72.5876 237.647C76.4946 241.168 81.5968 243.073 86.8594 242.977C87.776 242.956 88.6902 242.876 89.5963 242.738L122.372 237.807C125.677 237.308 128.813 236.023 131.517 234.063C132.34 238.154 134.377 241.903 137.363 244.823C140.348 247.744 144.145 249.701 148.259 250.44L163.586 253.185C164.937 253.433 166.31 253.545 167.684 253.518C168.298 253.518 168.913 253.518 169.513 253.398C171.294 254.283 173.19 254.911 175.147 255.264L190.033 257.929C191.355 258.163 192.696 258.27 194.038 258.248C199.191 258.151 204.125 256.15 207.885 252.633C211.646 249.116 213.966 244.332 214.398 239.206C215.153 239.193 215.906 239.139 216.654 239.046L234.972 236.688C236.116 236.543 237.246 236.302 238.349 235.968H239.538C240.285 235.968 241.046 235.888 241.794 235.795L245.131 235.369C246.033 239.817 248.369 243.849 251.783 246.848C255.197 249.846 259.5 251.646 264.036 251.972L282.18 253.305C282.834 253.305 283.515 253.305 284.115 253.305C289.303 253.201 294.266 251.166 298.028 247.599C301.79 244.031 304.08 239.189 304.448 234.023L304.529 233.01L308.881 233.903C310.383 234.205 311.914 234.344 313.447 234.316H313.901C315.422 235.043 317.027 235.58 318.68 235.915L333.139 238.86C334.645 239.172 336.181 239.315 337.718 239.286H337.865C339.309 239.948 340.822 240.444 342.378 240.765L357.063 243.764C359.743 244.318 362.506 244.338 365.193 243.823C367.88 243.307 370.439 242.267 372.722 240.761C375.005 239.255 376.967 237.313 378.496 235.048C380.024 232.782 381.089 230.238 381.629 227.56V227.32L411.948 229.918L413.149 237.834C413.903 242.815 416.444 247.353 420.3 250.604C424.156 253.854 429.064 255.595 434.11 255.503C435.026 255.487 435.94 255.411 436.847 255.277L452.988 252.838C454.354 252.626 455.696 252.277 456.993 251.799C457.487 251.799 457.968 251.799 458.462 251.799C459.378 251.771 460.292 251.691 461.198 251.559L477.5 249.187C480.204 248.779 482.8 247.842 485.141 246.431C487.483 245.021 489.522 243.163 491.144 240.965C491.358 240.685 491.558 240.392 491.758 240.099L498.981 239.966C504.502 239.861 509.756 237.571 513.587 233.6C517.417 229.63 519.511 224.303 519.407 218.792L518.339 163.651C521.574 161.8 524.251 159.115 526.09 155.878C527.93 152.641 528.863 148.969 528.793 145.248L528.459 127.818C528.412 125.086 527.826 122.39 526.734 119.884C525.642 117.378 524.066 115.111 522.095 113.214C520.125 111.317 517.799 109.826 515.251 108.826C512.703 107.827 509.982 107.339 507.245 107.39Z" fill="#EE4479" stroke="white" stroke-width="2.6" stroke-miterlimit="10"/>
<path d="M206.268 121.942C199.094 123.097 193.26 121.813 188.765 118.091C184.27 114.368 181.364 108.416 180.047 100.235L173.198 57.5929C171.961 49.9174 172.9 43.7921 176.015 39.217C179.13 34.6419 184.315 31.7858 191.569 30.6487C198.814 29.476 204.639 30.5776 209.045 33.9534C213.45 37.3292 216.267 42.8504 217.496 50.517L224.358 93.1587C225.675 101.341 224.785 107.901 221.688 112.84C218.59 117.78 213.45 120.814 206.268 121.942ZM203.771 105.418C206.495 104.983 207.429 102.131 206.575 96.8632L199.539 53.1022C198.818 48.6603 197.131 46.6659 194.479 47.119C191.489 47.5987 190.358 50.0995 191.088 54.6213L198.124 98.329C198.312 100.401 198.994 102.397 200.113 104.152C200.539 104.689 201.109 105.093 201.757 105.317C202.405 105.541 203.104 105.576 203.771 105.418Z" fill="white"/>
<path d="M270.898 114.599C263.315 114.448 257.779 112.228 254.29 107.937C250.801 103.646 249.137 97.3385 249.297 89.0145L250.699 22.5201L268.375 22.8799L267.04 88.6547C266.998 90.1135 267.051 91.5736 267.2 93.0254C267.3 94.2512 267.694 95.435 268.348 96.4768C268.69 96.9298 269.141 97.2894 269.659 97.5223C270.177 97.7552 270.746 97.8539 271.312 97.8093C271.89 97.874 272.475 97.7932 273.014 97.5744C273.552 97.3557 274.028 97.0058 274.396 96.5567C275.039 95.5717 275.437 94.4479 275.558 93.2786C275.748 91.8245 275.855 90.3608 275.878 88.8945L277.213 23.1198L294.889 23.4929L293.554 89.9872C293.385 98.2402 291.463 104.459 287.787 108.643C284.111 112.827 278.481 114.813 270.898 114.599Z" fill="white"/>
<path d="M326.197 118.051L335.101 27.6771L362.884 30.4089C367.503 30.8619 370.895 32.2611 373.057 34.5931C375.336 37.197 376.7 40.4723 376.942 43.9209C377.376 48.3714 377.349 52.8547 376.862 57.2997C376.619 61.3472 375.585 65.3082 373.818 68.9596C373.025 70.3779 371.924 71.6011 370.596 72.5396C369.267 73.478 367.746 74.1079 366.142 74.3831C367.385 74.6915 368.538 75.2893 369.506 76.1277C370.473 76.9662 371.228 78.0213 371.709 79.2069C372.692 82.0561 372.99 85.0965 372.577 88.0817L369.212 122.275L351.349 120.529L354.847 85.1501C355.101 82.485 354.727 80.8193 353.712 80.0864C352.151 79.1708 350.382 78.6664 348.572 78.6206L344.567 119.85L326.197 118.051ZM350.228 62.9631L354.593 63.3895C357.103 63.6383 358.625 61.0398 359.159 55.5941C359.506 52.0761 359.466 49.7309 359.026 48.5849C358.789 48.0064 358.383 47.5119 357.862 47.1652C357.341 46.8185 356.728 46.6353 356.102 46.6393L351.883 46.2262L350.228 62.9631Z" fill="white"/>
<path d="M22.5627 223.789L25.3664 133.015L50.3722 133.788C56.914 133.984 61.7825 135.947 64.9778 139.678C68.173 143.409 69.6549 148.762 69.4235 155.735L68.0885 198.23C67.8215 206.83 66.1126 213.421 62.9618 218.005C59.8111 222.589 54.4708 224.766 46.941 224.535L22.5627 223.789ZM41.3872 208.304L44.5379 208.398C47.8845 208.504 49.6067 206.941 49.7046 203.707L51.1331 156.881C51.2266 153.856 50.8928 151.898 50.1051 150.991C49.3175 150.085 47.6887 149.659 45.2055 149.526H43.1895L41.3872 208.304Z" fill="white"/>
<path d="M86.539 222.19L74.5234 142.996L106.258 138.212L108.581 153.51L93.0274 155.909L95.3638 171.34L110.33 169.087L112.586 183.892L97.6067 186.144L100.357 204.28L116.992 201.775L119.315 217.206L86.539 222.19Z" fill="white"/>
<path d="M122.826 209.744L121.184 122.595L144.254 122.155C149.087 122.066 152.936 123.066 155.802 125.153C158.801 127.428 160.994 130.597 162.064 134.201C163.473 138.774 164.197 143.529 164.213 148.313C164.352 152.957 163.903 157.6 162.878 162.132C162.143 165.693 160.269 168.919 157.538 171.326C154.948 173.529 151.236 174.675 146.403 174.764L139.314 174.897L139.968 209.424L122.826 209.744ZM139.034 159.253H140.022C143.262 159.2 145.233 158.254 145.936 156.415C146.718 153.826 147.034 151.119 146.871 148.42C146.927 145.822 146.516 143.236 145.656 140.784C144.908 139.007 143.213 138.141 140.569 138.186H138.633L139.034 159.253Z" fill="white"/>
<path d="M151.984 229.998L173.719 152.884L200.42 157.668L193.745 237.474L178.872 234.809L180.034 221.95L170.568 220.244L167.31 232.73L151.984 229.998ZM173.906 207.878L181.048 209.211L184.8 168.701L184.079 168.568L173.906 207.878Z" fill="white"/>
<path d="M214.078 218.419L202.463 128.351L230.152 124.793C234.771 124.207 238.394 124.807 241.019 126.592C243.811 128.621 245.872 131.495 246.894 134.788C248.317 139.051 249.296 143.449 249.817 147.913C250.478 151.896 250.356 155.97 249.457 159.906C249.002 161.463 248.203 162.898 247.12 164.106C246.036 165.315 244.695 166.265 243.196 166.889C244.478 166.915 245.736 167.243 246.867 167.845C247.999 168.447 248.973 169.306 249.711 170.353C251.305 172.909 252.275 175.803 252.541 178.802L256.947 212.888L239.15 215.167L234.598 179.894C234.268 177.229 233.521 175.67 232.355 175.217C230.626 174.679 228.79 174.583 227.014 174.937L232.355 216.033L214.078 218.419ZM225.119 159.36L229.484 158.8C231.985 158.48 232.875 155.606 232.155 150.179C231.714 146.674 231.14 144.395 230.446 143.383C230.086 142.87 229.581 142.477 228.996 142.254C228.41 142.031 227.772 141.987 227.161 142.13L222.956 142.676L225.119 159.36Z" fill="white"/>
<path d="M265.558 231.264L270.898 158.081L260.124 157.308L261.459 139.905L301.151 142.783L299.896 160.106L289.109 159.333L283.768 232.517L265.558 231.264Z" fill="white"/>
<path d="M298.507 210.623L314.969 130.23L339.494 135.227L336.236 185.624L352.991 137.986L377.824 143.036L361.362 223.429L346.677 220.431L358.425 162.571L337.318 218.538L322.859 215.593L324.915 155.629L313.06 213.555L298.507 210.623Z" fill="white"/>
<path d="M382.269 206.545L389.145 126.806L421.106 129.551L419.771 144.955L404.058 143.622L402.722 159.173L417.795 160.506L416.46 175.497L401.387 174.164L399.812 192.434L416.567 193.873L415.232 209.41L382.269 206.545Z" fill="white"/>
<path d="M433.896 234.756L421.387 152.351L438.369 149.779L451.96 188.103L445.912 148.633L461.933 146.221L474.442 228.626L458.301 231.064L443.789 191.088L450.051 232.29L433.896 234.756Z" fill="white"/>
<path d="M480.397 219.525L478.982 146.168L468.181 146.367L467.847 128.938L507.645 128.178L507.979 145.608L497.179 145.821L498.594 219.111L480.397 219.525Z" fill="white"/>
<path d="M536.71 182.719L525.428 172.765L515.469 184.039L515.269 170.567L498.54 174.444L509.514 163.744L493.827 158.414L510.849 155.495L503.56 143.449L518.66 149.685L523.172 136.56L529.273 149.019L543.478 140.957L537.751 153.83L555 154.603L540.101 161.838L552.33 171.086L535.228 169.314L536.71 182.719Z" fill="#DFE224"/>
<path d="M409.451 89.2543L400.36 83.9374L395.046 93.0121L393.097 83.7908L382.136 88.6946L388.237 79.8865L376.756 78.3274L388.037 74.0499L381.415 66.7608L392.616 69.0128L393.938 59.4052L399.812 67.134L408.477 59.6983L406.261 69.2927L418.209 67.5071L408.957 74.4763L418.597 79.1802L406.621 80.2596L409.451 89.2543Z" fill="#DFE224"/>
<path d="M113.12 159.586L87.0997 143.343L70.8386 169.327L65.9389 142.29L33.577 155.669L52.081 130.497L18.7444 124.993L52.0009 113.48L33.3099 91.6796L65.7654 99.1818L70.4381 71.2782L86.8995 94.318L112.773 73.3703L105.537 101.154L140.489 96.9565L112.947 116.478L140.623 131.016L105.657 133.149L113.12 159.586Z" fill="#DFE224"/>
<path d="M93.6683 128.618L74.7638 132.989C71.665 133.622 68.4411 133.021 65.7802 131.314C63.1192 129.607 61.2319 126.93 60.5211 123.854C59.8102 120.778 60.3322 117.546 61.9754 114.849C63.6187 112.151 66.2532 110.201 69.3167 109.416L88.2613 105.058C89.8111 104.701 91.4163 104.653 92.985 104.915C94.5538 105.177 96.0554 105.745 97.4042 106.586C98.7531 107.428 99.9226 108.526 100.846 109.819C101.77 111.111 102.429 112.573 102.787 114.12C103.144 115.667 103.193 117.269 102.931 118.835C102.668 120.4 102.099 121.899 101.256 123.245C100.413 124.592 99.3125 125.759 98.0174 126.681C96.7224 127.603 95.2582 128.261 93.7083 128.618H93.6683ZM69.4903 110.335C66.644 111.039 64.189 112.831 62.6546 115.325C61.1202 117.819 60.6294 120.815 61.2881 123.667C61.9468 126.519 63.7022 128.998 66.1757 130.57C68.6491 132.142 71.6425 132.68 74.5101 132.069L93.4547 127.712C96.344 127.046 98.8498 125.261 100.421 122.751C101.992 120.241 102.5 117.21 101.832 114.326C101.165 111.442 99.3769 108.941 96.8619 107.373C94.3469 105.805 91.3108 105.298 88.4215 105.965L69.4903 110.335Z" fill="white"/>
<path d="M85.4442 109.429L73.8291 112.094C72.7965 112.327 71.8203 112.761 70.9569 113.372C70.0935 113.983 69.3601 114.759 68.7989 115.655C68.2378 116.551 67.8601 117.549 67.6877 118.592C67.5154 119.634 67.5517 120.7 67.7946 121.729L67.9815 122.581C68.2143 123.613 68.6499 124.589 69.2632 125.452C69.8765 126.315 70.6552 127.047 71.5543 127.608C72.4533 128.168 73.4548 128.545 74.5007 128.716C75.5467 128.887 76.6162 128.849 77.6474 128.605L89.2625 125.939C90.2951 125.707 91.2713 125.273 92.1347 124.661C92.998 124.05 93.7315 123.274 94.2926 122.378C94.8538 121.482 95.2314 120.484 95.4038 119.442C95.5762 118.4 95.5399 117.333 95.2969 116.305L95.0967 115.452C94.8638 114.422 94.4286 113.447 93.8162 112.585C93.2039 111.724 92.4264 110.992 91.5289 110.432C90.6313 109.871 89.6314 109.494 88.587 109.322C87.5427 109.15 86.4744 109.187 85.4442 109.429ZM88.6216 124.22C87.3349 124.554 85.9777 124.497 84.7239 124.056C83.4701 123.614 82.3768 122.81 81.5841 121.745C80.7914 120.679 80.3355 119.402 80.2746 118.077C80.2138 116.751 80.551 115.438 81.2428 114.304C81.9346 113.171 82.9497 112.27 84.1578 111.717C85.366 111.163 86.7123 110.982 88.0242 111.197C89.336 111.412 90.5537 112.013 91.5212 112.923C92.4887 113.833 93.1619 115.011 93.4546 116.305C93.8337 118.002 93.5336 119.779 92.6182 121.258C91.7028 122.737 90.2447 123.8 88.5549 124.22H88.6216Z" fill="white"/>
</g>
<defs>
<clipPath id="clip0_961_788">
<rect width="555" height="258" fill="white"/>
</clipPath>
</defs>
</svg>
