<svg width="742" height="266" viewBox="0 0 742 266" fill="none" xmlns="http://www.w3.org/2000/svg">
<g clip-path="url(#clip0_961_860)">
<path d="M738.445 208.546L719.418 164.091L722.582 124.19C722.793 121.563 722.457 118.921 721.596 116.43C720.735 113.939 719.367 111.653 717.58 109.717C715.792 107.781 713.624 106.236 711.21 105.179C708.796 104.123 706.19 103.578 703.555 103.579C702.532 103.58 701.51 103.661 700.499 103.822L681.647 106.88C680.177 107.115 678.74 107.522 677.365 108.092C676.907 108.092 676.436 108.092 676.018 108.092C674.994 108.09 673.971 108.175 672.961 108.348L654.433 111.325C649.843 112.067 645.682 114.46 642.732 118.054C639.781 121.649 638.244 126.197 638.408 130.845C637.681 130.845 636.954 130.764 636.2 130.764L607.801 130.858C605.703 127.039 602.971 123.604 599.721 120.701C594.753 116.323 586 111.083 572.575 111.083C570.905 111.083 569.168 111.163 567.417 111.325C551.258 112.807 542.115 120.351 537.348 126.426C536.239 127.849 535.231 129.348 534.332 130.912L523.223 130.643H522.765C521.204 130.646 519.649 130.836 518.133 131.208C516.493 130.716 514.795 130.449 513.083 130.414L495.403 129.983H494.945C493.314 129.983 491.689 130.191 490.111 130.602C488.406 130.067 486.633 129.776 484.846 129.74L470.033 129.39C470.366 128.264 470.592 127.109 470.707 125.941L474.167 90.8356C474.637 86.492 474.428 82.1018 473.548 77.8225C476.357 72.0091 478.034 65.7138 478.49 59.2729C479.149 53.3563 479.176 47.3864 478.571 41.4641C477.887 33.891 474.758 26.7463 469.656 21.1093C464.189 15.1685 456.581 11.6795 447.061 10.7365L418.608 7.93456C417.975 7.93456 417.356 7.84026 416.736 7.84026C411.996 7.8378 407.424 9.6008 403.912 12.7858C400.399 15.9709 398.198 20.3499 397.736 25.0698L397.48 27.6562L397.588 22.4564C397.642 19.9502 397.201 17.4579 396.291 15.1222C395.381 12.7865 394.02 10.6531 392.285 8.84401C390.551 7.03491 388.477 5.58559 386.182 4.57892C383.887 3.57224 381.416 3.02797 378.911 2.9772L360.409 2.58654C359.005 2.58947 357.606 2.74302 356.235 3.04455C354.753 2.6525 353.23 2.43548 351.697 2.39794L333.195 2.02075C328.202 2.01971 323.406 3.9771 319.839 7.47283C316.272 10.9686 314.216 15.724 314.114 20.7186L313.858 32.6944C311.248 26.8147 307.223 21.673 302.143 17.728C295.22 12.489 286.732 9.74077 278.053 9.92828C275.22 9.93437 272.392 10.1686 269.597 10.6288C253.68 13.1883 245.21 21.2575 240.915 27.5754C234.896 36.4124 232.835 47.3914 234.949 60.2158L241.979 103.943C242.565 107.553 243.466 111.105 244.672 114.558C244.052 114.706 243.446 114.841 242.854 115.043C241.773 114.854 240.678 114.76 239.582 114.76C239.124 114.76 238.653 114.76 238.235 114.76L219.841 116.107C215.825 116.399 212.005 117.96 208.934 120.566L175.566 117.535C174.987 117.535 174.408 117.454 173.842 117.454C171.306 117.456 168.796 117.969 166.463 118.963C163.132 116.358 159.029 114.936 154.802 114.922C154.357 114.922 153.899 114.922 153.455 114.922L125.231 117.01C122.491 117.203 119.826 117.986 117.418 119.307C115.01 120.628 112.916 122.454 111.281 124.661L86.4498 120.62C85.4388 120.46 84.4168 120.379 83.3931 120.378C78.9642 120.391 74.6786 121.949 71.274 124.783C67.8292 121.844 63.4529 120.226 58.9259 120.216C58.1926 120.216 57.4599 120.257 56.731 120.337L19.0271 124.661C16.525 124.934 14.1016 125.7 11.8965 126.914C9.69134 128.127 7.74803 129.766 6.17848 131.734C4.60894 133.702 3.44417 135.962 2.75125 138.382C2.05834 140.803 1.85098 143.337 2.14112 145.838L12.9137 240.136C13.4517 244.79 15.68 249.085 19.1753 252.205C22.6707 255.324 27.1895 257.05 31.8734 257.055C32.6026 257.057 33.3313 257.012 34.0548 256.921L53.0145 254.752C56.7702 254.316 60.3116 252.773 63.1889 250.32C66.0661 247.866 68.1491 244.612 69.1733 240.971L101.006 246.103C104.536 246.681 108.157 246.25 111.452 244.858C114.747 243.466 117.582 241.17 119.629 238.236C121.141 238.635 122.698 238.838 124.261 238.842C124.706 238.842 125.15 238.842 125.608 238.842L141.767 237.711C143.847 237.568 145.889 237.086 147.813 236.283C149.396 236.694 151.025 236.902 152.661 236.903H154.007L157.845 236.633C158.768 240.524 160.889 244.027 163.909 246.647C166.929 249.267 170.696 250.872 174.677 251.236L193.529 252.947C194.108 252.947 194.687 253.027 195.253 253.027C200.016 253.027 204.607 251.246 208.125 248.033C211.642 244.82 213.833 240.408 214.266 235.663L214.684 231.029C216.069 233.198 217.67 235.22 219.464 237.064C224.46 242.197 233.509 248.326 248.254 248.326C249.6 248.326 251.014 248.326 252.414 248.164C254.919 247.989 257.407 247.633 259.861 247.1C261.437 249.493 263.533 251.498 265.993 252.966C268.454 254.433 271.214 255.325 274.067 255.573L293.189 257.284C293.754 257.284 294.32 257.352 294.872 257.352C295.51 257.354 296.149 257.323 296.784 257.257C297.94 257.591 299.126 257.812 300.325 257.917L318.962 259.574C319.541 259.574 320.106 259.655 320.672 259.655C325.438 259.65 330.029 257.861 333.543 254.64C337.057 251.419 339.238 247 339.659 242.251L340.022 238.209C340.759 238.306 341.501 238.355 342.244 238.357C342.901 238.36 343.557 238.328 344.21 238.263L364.543 236.162C365.383 240.383 367.626 244.195 370.907 246.978C374.188 249.762 378.314 251.353 382.614 251.492L408.051 252.313H409.855C428.034 252.313 437.258 242.884 441.136 237.253C446.603 229.318 449.471 219.215 449.889 206.377L450.32 193.31L454.71 245.174C455.1 249.87 457.212 254.256 460.64 257.489C464.068 260.722 468.569 262.573 473.279 262.686L496.399 263.239H496.884C498.293 263.24 499.698 263.082 501.072 262.767C502.581 263.188 504.137 263.419 505.704 263.454L528.448 263.993H528.905C533.519 263.978 537.971 262.291 541.437 259.245C544.903 256.198 547.149 251.999 547.757 247.423L549.104 237.253C556.399 243.023 565.471 246.08 574.77 245.901C576.345 245.901 577.988 245.82 579.631 245.672C582.052 245.442 584.455 245.046 586.821 244.487V245.026C586.843 250.084 588.87 254.926 592.458 258.49C596.045 262.054 600.9 264.048 605.956 264.033L626.155 263.966C627.412 263.964 628.666 263.838 629.898 263.589C631.114 263.821 632.35 263.938 633.588 263.939H653.234C658.294 263.918 663.138 261.888 666.703 258.297C670.268 254.705 672.262 249.845 672.248 244.783V243.086H672.692C673.716 243.085 674.738 243.004 675.749 242.843L694.305 239.785C696.034 239.511 697.716 238.994 699.3 238.25C700.019 238.342 700.743 238.387 701.468 238.384C702.493 238.386 703.515 238.3 704.525 238.128L723.956 234.99C726.817 234.522 729.534 233.409 731.901 231.736C734.268 230.062 736.224 227.872 737.62 225.331C739.016 222.789 739.816 219.963 739.959 217.067C740.102 214.171 739.584 211.28 738.445 208.613V208.546Z" fill="#F44379" stroke="white" stroke-width="3"/>
<path d="M287.681 123.207C280.329 124.392 274.35 123.072 269.745 119.246C265.139 115.42 262.168 109.309 260.83 100.912L253.801 57.1849C252.536 49.2998 253.501 43.0133 256.696 38.3254C259.892 33.6375 265.202 30.6918 272.626 29.4884C280.042 28.2849 286.007 29.4165 290.522 32.8831C295.038 36.3496 297.924 42.003 299.181 49.8432L306.21 93.5703C307.556 101.976 306.659 108.712 303.517 113.777C300.375 118.842 295.096 121.985 287.681 123.207ZM285.123 106.233C287.905 105.793 288.866 102.865 288.004 97.45L280.773 52.5374C280.046 47.9931 278.322 45.9455 275.602 46.3946C272.546 46.8795 271.374 49.4525 272.128 54.0866L279.332 98.9722C279.553 101.099 280.272 103.144 281.433 104.94C281.868 105.476 282.443 105.881 283.095 106.109C283.746 106.337 284.448 106.38 285.123 106.233Z" fill="white"/>
<path d="M353.892 115.663C346.127 115.501 340.453 113.198 336.871 108.752C333.289 104.307 331.588 97.8541 331.768 89.3943L333.195 21.1094L351.293 21.4866L349.946 89.0306C349.911 90.5233 349.965 92.0168 350.108 93.503C350.201 94.7628 350.593 95.9821 351.253 97.0593C351.598 97.5361 352.058 97.9181 352.59 98.1701C353.122 98.422 353.708 98.5357 354.296 98.5007C354.892 98.5613 355.494 98.4694 356.045 98.2338C356.596 97.9982 357.078 97.6266 357.447 97.1536C358.16 96.118 358.596 94.9168 358.713 93.6646C358.908 92.1723 359.021 90.6702 359.049 89.1653L360.396 21.6347L378.494 22.0119L377.147 90.2834C376.959 98.7522 374.988 105.133 371.236 109.426C367.483 113.719 361.702 115.798 353.892 115.663Z" fill="white"/>
<path d="M407.606 119.731L416.736 26.9421L445.189 29.7441C449.929 30.2156 453.417 31.6435 455.625 34.0414C457.97 36.7034 459.388 40.0551 459.665 43.5924C460.104 48.1864 460.068 52.8136 459.557 57.4003C459.31 61.5454 458.248 65.6011 456.433 69.3356C455.618 70.7896 454.49 72.0435 453.129 73.006C451.769 73.9684 450.211 74.6152 448.569 74.8992C449.843 75.2145 451.024 75.8268 452.017 76.686C453.009 77.5452 453.784 78.627 454.278 79.8431C455.272 82.7557 455.568 85.8613 455.14 88.9091L451.666 124.069L433.38 122.277L436.948 85.9051C437.217 83.2108 436.827 81.4596 435.777 80.7052C434.178 79.7775 432.373 79.2635 430.525 79.2099L426.364 121.536L407.606 119.731ZM432.249 63.1794L436.719 63.6104C439.287 63.8619 440.844 61.1946 441.392 55.6086C441.755 51.9849 441.702 49.587 441.257 48.415C441.012 47.8205 440.595 47.3123 440.061 46.955C439.526 46.5976 438.897 46.4072 438.254 46.4079L433.932 45.9902L432.249 63.1794Z" fill="white"/>
<path d="M31.9002 237.98L21.1277 143.683L58.8316 139.358L60.9323 157.746L42.188 159.888L43.8982 174.895L61.6864 172.861L63.7735 191.02L45.9854 193.068L50.8734 235.825L31.9002 237.98Z" fill="white"/>
<path d="M70.116 221.801L83.3797 139.507L116.276 144.814L113.718 160.71L97.559 158.11L94.9736 174.141L110.5 176.646L107.995 192.125L92.4825 189.619L89.4392 208.479L106.689 211.254L104.09 227.284L70.116 221.801Z" fill="white"/>
<path d="M124.315 219.767L126.578 136.058L154.775 134.091L168.483 216.683L152.755 217.787L150.627 204.451L140.622 205.151L140.515 218.622L124.315 219.767ZM140.824 191.788L148.379 191.263L141.78 149.233H141.026L140.824 191.788Z" fill="white"/>
<path d="M176.401 232.147L183.322 155.766L172.105 154.742L173.748 136.597L215.087 140.342L213.445 158.501L202.228 157.477L195.293 233.872L176.401 232.147Z" fill="white"/>
<path d="M251.108 229.009C243.217 229.592 237.248 227.796 233.199 223.62C229.15 219.444 226.825 213.081 226.224 204.532L221.201 135.182L239.595 133.835L244.564 202.43C244.671 203.95 244.873 205.462 245.17 206.956C245.378 208.224 245.891 209.421 246.665 210.445C247.06 210.895 247.562 211.238 248.124 211.443C248.686 211.648 249.291 211.708 249.883 211.617C250.487 211.627 251.085 211.485 251.621 211.205C252.157 210.925 252.615 210.516 252.953 210.014C253.576 208.893 253.905 207.633 253.909 206.35C253.964 204.818 253.933 203.285 253.815 201.757L248.833 133.162L267.227 131.815L272.263 201.164C272.882 209.776 271.491 216.427 268.088 221.115C264.686 225.802 259.026 228.434 251.108 229.009Z" fill="white"/>
<path d="M275.831 236.498L284.234 141.945L313.226 144.518C318.055 144.949 321.61 146.377 323.89 148.802C326.289 151.493 327.745 154.894 328.038 158.487C328.519 163.158 328.519 167.867 328.038 172.538C327.817 176.739 326.779 180.858 324.981 184.662C324.164 186.15 323.026 187.437 321.649 188.43C320.273 189.422 318.692 190.095 317.023 190.4C318.323 190.71 319.532 191.323 320.55 192.189C321.568 193.055 322.366 194.15 322.88 195.385C323.934 198.353 324.275 201.528 323.877 204.653L320.699 240.432L302.062 238.775L305.348 201.756C305.59 199.062 305.187 197.244 304.109 196.476C302.465 195.543 300.613 195.038 298.723 195.007L294.885 238.115L275.831 236.498ZM300.285 178.68L304.85 179.085C307.462 179.318 309.024 176.588 309.536 170.894C309.859 167.203 309.787 164.76 309.32 163.566C309.068 162.963 308.64 162.449 308.093 162.092C307.546 161.734 306.904 161.548 306.25 161.559L301.847 161.168L300.285 178.68Z" fill="white"/>
<path d="M342.311 219.148L333.761 136.233L366.913 132.812L368.57 148.829L352.276 150.513L353.946 166.678L369.579 165.075L371.182 180.661L355.494 182.264L357.46 201.245L374.831 199.453L376.501 215.618L342.311 219.148Z" fill="white"/>
<path d="M383.301 232.282L386.385 137.405L412.468 138.254C419.29 138.469 424.367 140.53 427.697 144.437C431.028 148.344 432.572 153.943 432.33 161.235L430.889 205.69C430.593 214.671 428.797 221.554 425.502 226.341C422.208 231.128 416.624 233.373 408.751 233.077L383.301 232.282ZM402.921 216.117L406.206 216.224C409.689 216.35 411.485 214.72 411.592 211.334L413.181 162.38C413.276 159.215 412.926 157.167 412.104 156.224C411.283 155.281 409.6 154.769 407.014 154.688L404.913 154.608L402.921 216.117Z" fill="white"/>
<path d="M473.736 243.53L465.792 148.384L484.334 148.829L488.145 208.802L494.878 149.017L512.558 149.435L516.194 209.462L522.684 149.677L541.442 150.122L528.838 244.783L506.095 244.244L502.445 198.443L496.884 244.083L473.736 243.53Z" fill="white"/>
<path d="M577.921 226.584C570.362 227.284 564.383 225.533 559.984 221.33C555.585 217.127 552.982 210.706 552.174 202.066L548.054 157.181C547.309 149.098 548.722 142.775 552.295 138.213C555.868 133.651 561.47 131.024 569.101 130.333C576.722 129.632 582.701 131.199 587.037 135.034C591.373 138.869 593.913 144.828 594.658 152.91L598.765 197.809C599.555 206.44 598.164 213.22 594.591 218.151C591.018 223.081 585.461 225.892 577.921 226.584ZM576.493 209.179C579.348 208.91 580.533 206 580.021 200.45L575.793 154.311C575.376 149.664 573.76 147.454 570.972 147.71C567.821 148.007 566.461 150.526 566.933 155.295L571.161 201.379C571.209 203.552 571.777 205.681 572.817 207.589C573.217 208.175 573.774 208.636 574.425 208.917C575.076 209.199 575.793 209.289 576.493 209.179Z" fill="white"/>
<path d="M605.956 244.891L605.633 149.96L636.092 149.853C641.164 149.853 645.002 150.948 647.605 153.139C650.333 155.556 652.181 158.812 652.857 162.394C653.814 166.997 654.266 171.69 654.204 176.391C654.394 180.621 653.706 184.846 652.184 188.797C651.453 190.378 650.38 191.776 649.044 192.892C647.707 194.008 646.14 194.813 644.454 195.25C645.82 195.424 647.125 195.914 648.268 196.681C649.411 197.448 650.36 198.471 651.039 199.669C652.415 202.511 653.076 205.646 652.965 208.802L653.086 244.729L633.52 244.797L633.386 207.63C633.386 204.936 632.78 203.144 631.595 202.484C629.788 201.705 627.82 201.373 625.858 201.514L626.02 244.824L605.956 244.891ZM625.939 185.066H630.733C633.426 185.066 634.853 182.197 634.773 176.485C634.773 172.785 634.463 170.356 633.843 169.197C633.506 168.615 633.007 168.144 632.407 167.84C631.807 167.537 631.132 167.414 630.464 167.486H625.831L625.939 185.066Z" fill="white"/>
<path d="M672.625 223.89L657.462 130.185L675.978 127.181L682.051 164.711L684.744 125.766L703.596 122.708L700.054 167.324L720.94 216.076L701.509 219.215L684.003 175.501L691.261 220.926L672.625 223.89Z" fill="white"/>
<path d="M77.118 143.184L65.551 132.96L55.344 144.545L55.142 130.71L38.0002 134.684L49.244 123.705L33.1794 118.222L50.6175 115.245L43.1441 102.865L58.6161 109.264L63.2349 95.793L69.4964 108.59L84.0394 100.319L78.1683 113.521L95.8353 114.316L80.5787 121.752L93.1018 131.249L75.5964 129.43L77.118 143.184Z" fill="#E2E71B"/>
<path d="M698.492 253.903L689.188 248.447L683.734 257.756L681.741 248.286L670.511 253.324L676.745 244.271L664.99 242.682L676.557 238.277L669.77 230.8L681.243 233.117L682.603 223.243L688.609 231.191L697.482 223.553L695.234 233.4L707.461 231.568L697.981 238.721L707.851 243.557L695.597 244.662L698.492 253.903Z" fill="#E2E71B"/>
<path d="M518.699 145.488L492.05 128.797L475.393 155.483L470.37 127.733L437.218 141.46L456.164 115.622L422.028 109.978L456.097 98.137L436.948 75.748L470.182 83.467L474.989 54.814L491.834 78.4692L518.348 56.9693L510.929 85.4876L546.734 81.1903L518.523 101.222L546.882 116.148L511.063 118.33L518.699 145.488Z" fill="#E2E71B"/>
<path d="M498.783 113.696L479.379 118.168C476.165 118.91 472.788 118.343 469.991 116.594C467.194 114.844 465.206 112.055 464.465 108.84C463.724 105.624 464.291 102.246 466.039 99.448C467.788 96.6501 470.576 94.6617 473.79 93.9204L493.208 89.4345C496.422 88.695 499.798 89.263 502.594 91.0138C505.389 92.7645 507.375 95.5545 508.114 98.77C508.854 101.985 508.286 105.363 506.536 108.16C504.786 110.956 501.997 112.943 498.783 113.682V113.696ZM473.992 94.9172C471.172 95.7251 468.769 97.5858 467.28 100.115C465.791 102.644 465.33 105.649 465.992 108.509C466.654 111.368 468.388 113.864 470.837 115.481C473.285 117.098 476.261 117.713 479.15 117.198L498.567 112.713C501.526 112.03 504.093 110.2 505.703 107.624C507.313 105.049 507.834 101.939 507.152 98.9788C506.47 96.0187 504.64 93.451 502.065 91.8405C499.491 90.23 496.382 89.7086 493.423 90.391L473.992 94.9172Z" fill="white"/>
<path d="M490.286 93.9879L478.382 96.6822C477.327 96.9252 476.331 97.3737 475.449 98.0022C474.567 98.6307 473.818 99.4268 473.244 100.345C472.67 101.263 472.283 102.286 472.104 103.354C471.925 104.422 471.958 105.515 472.202 106.57L472.403 107.446C472.646 108.501 473.095 109.498 473.723 110.38C474.351 111.262 475.147 112.011 476.065 112.586C476.983 113.16 478.005 113.548 479.072 113.727C480.14 113.906 481.232 113.872 482.287 113.629L494.191 110.935C495.247 110.692 496.245 110.243 497.128 109.613C498.011 108.984 498.761 108.186 499.335 107.267C499.909 106.347 500.296 105.323 500.474 104.253C500.652 103.184 500.617 102.09 500.372 101.033L500.17 100.158C499.676 98.0288 498.358 96.183 496.504 95.0261C494.651 93.8692 492.414 93.4958 490.286 93.9879ZM493.531 109.116C492.233 109.409 490.878 109.312 489.636 108.835C488.394 108.358 487.32 107.524 486.552 106.438C485.783 105.352 485.353 104.062 485.317 102.732C485.28 101.401 485.638 100.09 486.346 98.9626C487.054 97.8357 488.08 96.9438 489.294 96.3995C490.508 95.8553 491.856 95.683 493.168 95.9046C494.479 96.1261 495.696 96.7315 496.665 97.6443C497.633 98.5571 498.309 99.7364 498.608 101.033C498.807 101.898 498.833 102.793 498.686 103.667C498.538 104.542 498.219 105.379 497.748 106.13C497.276 106.881 496.661 107.531 495.937 108.043C495.214 108.556 494.396 108.92 493.531 109.116Z" fill="white"/>
</g>
<defs>
<clipPath id="clip0_961_860">
<rect width="742" height="266" fill="white"/>
</clipPath>
</defs>
</svg>
