<svg width="20" height="20" viewBox="0 0 20 20" fill="none" xmlns="http://www.w3.org/2000/svg">
<path d="M14.167 6.00879C16.6578 6.61016 18.3337 7.73416 18.3337 9.02151C18.3337 10.9424 14.6027 12.4996 10.0003 12.4996C5.39795 12.4996 1.66699 10.9424 1.66699 9.02151C1.66699 7.73416 3.34282 6.61016 5.83366 6.00879" stroke="white" stroke-width="1.25"/>
<path d="M5.83301 6.44063C5.83301 4.26428 7.59729 2.5 9.77367 2.5H10.2257C12.4021 2.5 14.1663 4.26428 14.1663 6.44063C14.1663 6.58834 14.1212 6.73265 13.9999 6.81699C13.6548 7.057 12.6578 7.5 9.99967 7.5C7.34147 7.5 6.34451 7.057 5.99944 6.81699C5.87817 6.73265 5.83301 6.58834 5.83301 6.44063Z" stroke="white" stroke-width="1.25"/>
<path d="M10.0003 10.8337C10.4606 10.8337 10.8337 10.4606 10.8337 10.0003C10.8337 9.54009 10.4606 9.16699 10.0003 9.16699C9.54009 9.16699 9.16699 9.54009 9.16699 10.0003C9.16699 10.4606 9.54009 10.8337 10.0003 10.8337Z" fill="white"/>
<path d="M5.83333 9.99967C6.29357 9.99967 6.66667 9.62658 6.66667 9.16634C6.66667 8.7061 6.29357 8.33301 5.83333 8.33301C5.3731 8.33301 5 8.7061 5 9.16634C5 9.62658 5.3731 9.99967 5.83333 9.99967Z" fill="white"/>
<path d="M14.1663 9.99967C14.6266 9.99967 14.9997 9.62658 14.9997 9.16634C14.9997 8.7061 14.6266 8.33301 14.1663 8.33301C13.7061 8.33301 13.333 8.7061 13.333 9.16634C13.333 9.62658 13.7061 9.99967 14.1663 9.99967Z" fill="white"/>
<path d="M10 17.5V15" stroke="white" stroke-width="1.25" stroke-linecap="round"/>
<path d="M15 16.667V14.167" stroke="white" stroke-width="1.25" stroke-linecap="round"/>
<path d="M5 16.667V14.167" stroke="white" stroke-width="1.25" stroke-linecap="round"/>
</svg>
