<svg width="154" height="150" viewBox="0 0 154 150" fill="none" xmlns="http://www.w3.org/2000/svg">
<g clip-path="url(#clip0_406_325)">
<path d="M91.6592 127.753L98.7249 143.434L96.9462 143.691L90.765 129.631L91.1384 129.577L89.0845 144.828L87.2179 145.098L80.9489 131.051L81.3442 130.994L79.3782 146.232L77.5995 146.489L79.9326 129.449L81.7992 129.179L88.1216 143.286L87.7263 143.343L89.7926 128.023L91.6592 127.753Z" fill="white"/>
<path d="M72.0001 129.229L69.2452 145.798L67.6036 145.525L68.7863 138.411L69.1438 138.561C68.7258 139.271 68.1521 139.79 67.4227 140.119C66.6787 140.445 65.8689 140.535 64.9934 140.39C64.1617 140.251 63.449 139.938 62.8555 139.449C62.2473 138.958 61.8093 138.346 61.5415 137.611C61.2567 136.889 61.1835 136.112 61.3218 135.281L62.5882 127.664L64.2298 127.937L63.0689 134.919C62.95 135.634 62.9807 136.261 63.1608 136.801C63.341 137.341 63.6427 137.781 64.066 138.121C64.4722 138.474 64.9672 138.698 65.5509 138.795C66.1346 138.892 66.6829 138.841 67.196 138.642C67.7066 138.457 68.143 138.132 68.5051 137.667C68.8503 137.215 69.0811 136.638 69.1975 135.938L70.3585 128.956L72.0001 129.229Z" fill="white"/>
<path d="M53.326 123.994C54.3524 124.453 55.1756 125.112 55.7956 125.973C56.4096 126.847 56.7763 127.821 56.8958 128.895C56.9957 129.976 56.8012 131.064 56.3123 132.158C55.8295 133.238 55.1549 134.095 54.2885 134.729C53.4221 135.362 52.4683 135.738 51.4272 135.856C50.3666 135.982 49.3096 135.809 48.2562 135.338C47.2028 134.868 46.3729 134.205 45.7663 133.351C45.1463 132.49 44.7901 131.529 44.6976 130.467C44.5917 129.399 44.7831 128.318 45.272 127.224C45.7669 126.117 46.4573 125.242 47.3433 124.601C48.2232 123.974 49.1905 123.604 50.245 123.492C51.2861 123.374 52.3131 123.541 53.326 123.994ZM52.647 125.513C51.9177 125.187 51.1812 125.077 50.4376 125.182C49.6804 125.281 48.9912 125.573 48.3699 126.057C47.7351 126.534 47.2427 127.165 46.8926 127.948C46.5425 128.732 46.4043 129.512 46.4778 130.29C46.5378 131.063 46.7834 131.764 47.2147 132.394C47.6324 133.018 48.2059 133.493 48.9352 133.819C49.6645 134.145 50.4077 134.258 51.1649 134.159C51.9085 134.054 52.5948 133.769 53.2235 133.305C53.8523 132.841 54.3417 132.217 54.6917 131.434C55.0418 130.65 55.1831 129.863 55.1156 129.071C55.0482 128.28 54.8056 127.572 54.3878 126.948C53.9565 126.317 53.3763 125.839 52.647 125.513Z" fill="white"/>
<path d="M40.7356 117.156L24.7535 124.453L23.4158 123.097L30.9356 107.222L32.2423 108.547L30.3671 112.386L35.5471 117.637L39.4289 115.832L40.7356 117.156ZM33.9597 118.393L29.6197 113.994L25.2177 123.031L24.8444 122.652L33.9597 118.393Z" fill="white"/>
<path d="M29.2023 104.203L19.0727 110.435L18.2007 109.017L19.8638 107.994L19.7344 108.334C19.1083 108.39 18.5095 108.263 17.9378 107.955C17.3583 107.634 16.8554 107.127 16.4291 106.434L16.0338 105.792L17.4512 104.92L17.9976 105.808C18.4472 106.539 19.0344 106.985 19.7592 107.147C20.4841 107.309 21.2623 107.134 22.0938 106.622L28.3303 102.786L29.2023 104.203Z" fill="white"/>
<path d="M23.2162 91.3915C23.5729 92.442 23.6443 93.4801 23.4303 94.5057C23.1975 95.5221 22.7161 96.4277 21.9862 97.2224C21.2563 98.0171 20.3241 98.6071 19.1896 98.9924C18.0551 99.3778 16.9727 99.4798 15.9426 99.2985C14.8984 99.122 13.9863 98.7132 13.2061 98.0721C12.4212 97.417 11.8551 96.5782 11.5078 95.5557C11.2319 94.7433 11.141 93.9697 11.235 93.2347C11.3103 92.4905 11.531 91.8063 11.897 91.1821C12.249 90.5626 12.7067 90.0244 13.2701 89.5675C13.8196 89.1153 14.4304 88.775 15.1027 88.5467C15.2428 88.4991 15.4062 88.4514 15.5931 88.4036C15.7659 88.3605 15.9481 88.322 16.1397 88.2882L19.3723 97.8056L17.9016 98.3051L14.9759 89.6911L15.8631 90.2334C15.0499 90.369 14.3945 90.6931 13.8969 91.2058C13.3805 91.7093 13.0424 92.3006 12.8825 92.9798C12.7087 93.6637 12.7406 94.3559 12.9785 95.0562C13.2164 95.7565 13.6197 96.346 14.1884 96.8246C14.7524 97.2891 15.4206 97.5777 16.1931 97.6903C16.9515 97.8076 17.7671 97.679 18.6397 97.3045C19.5599 97.0701 20.2967 96.6636 20.8501 96.0851C21.3847 95.4973 21.7294 94.8335 21.8843 94.0935C22.0344 93.3395 21.9881 92.6054 21.7455 91.891C21.4648 91.0647 21.0332 90.4379 20.4508 90.0109C19.8683 89.5838 19.2234 89.2951 18.5162 89.1448L18.7739 87.5575C19.3542 87.6104 19.94 87.7942 20.5312 88.1089C21.1084 88.4284 21.6394 88.8651 22.1244 89.419C22.5906 89.9637 22.9545 90.6212 23.2162 91.3915Z" fill="white"/>
<path d="M19.9222 73.9002L2.91014 76.4505L3.15196 74.6714L18.3632 72.533L18.3125 72.9064L4.22074 66.8083L4.4745 64.9413L19.6977 62.715L19.644 63.1103L5.5403 57.1001L5.78212 55.321L21.5165 62.1713L21.2627 64.0383L5.96757 66.2999L6.02131 65.9045L20.176 72.0333L19.9222 73.9002Z" fill="white"/>
<path d="M26.219 50.8539C25.718 51.8437 25.0261 52.6209 24.1434 53.1854C23.2543 53.7301 22.2704 54.0196 21.192 54.0539C20.1135 54.0883 19.0397 53.8348 17.9707 53.2937C16.9017 52.7525 16.0717 52.0505 15.4806 51.1875C14.8763 50.3179 14.5303 49.3801 14.4427 48.3741C14.3618 47.3549 14.5652 46.3636 15.0529 45.4002C15.4404 44.6348 15.9296 44.0286 16.5206 43.5817C17.1051 43.1149 17.7484 42.7939 18.4505 42.6188C19.1394 42.437 19.8442 42.3876 20.5649 42.4706C21.2723 42.5468 21.9428 42.7453 22.5763 43.066C22.7083 43.1328 22.8567 43.2163 23.0216 43.3163C23.1733 43.4097 23.3282 43.513 23.4864 43.6262L18.9467 52.594L17.5609 51.8925L21.6698 43.776L21.9029 44.7893C21.2371 44.3031 20.547 44.0615 19.8326 44.0645C19.1116 44.0477 18.4525 44.2197 17.8553 44.5806C17.2449 44.9348 16.7727 45.4419 16.4386 46.1017C16.1046 46.7616 15.9655 47.4622 16.0213 48.2034C16.0839 48.9314 16.3451 49.6107 16.8051 50.2415C17.2518 50.8656 17.9142 51.3584 18.7922 51.72C19.6035 52.2136 20.4094 52.4557 21.2099 52.4465C22.0039 52.4173 22.7194 52.1993 23.3565 51.7923C24.0003 51.3721 24.4926 50.8255 24.8333 50.1524C25.2275 49.3738 25.3734 48.6269 25.2711 47.912C25.1688 47.197 24.924 46.5342 24.5368 45.9237L25.8512 44.9975C26.2194 45.4491 26.4979 45.9963 26.6865 46.6389C26.862 47.2749 26.9214 47.9599 26.8649 48.6939C26.8018 49.408 26.5865 50.1281 26.219 50.8539Z" fill="white"/>
<path d="M64.9816 21.0477L58.6149 5.07061L60.4033 4.8921L65.9578 19.2109L65.5824 19.2484L68.3075 4.10316L70.1842 3.91584L75.827 18.2258L75.4295 18.2655L78.0663 3.1291L79.8547 2.9506L76.7716 19.8709L74.8949 20.0582L69.2014 5.68634L69.5988 5.64667L66.8583 20.8603L64.9816 21.0477Z" fill="white"/>
<path d="M84.6601 20.4266L88.138 3.99396L89.7661 4.33854L88.2729 11.3935L87.9223 11.2286C88.371 10.5373 88.9669 10.0435 89.71 9.74718C90.4676 9.45392 91.2805 9.39917 92.1488 9.58294C92.9737 9.75753 93.672 10.1019 94.2436 10.616C94.8296 11.1331 95.2403 11.7644 95.4757 12.5097C95.7286 13.2436 95.7678 14.023 95.5932 14.8479L93.9944 22.4022L92.3663 22.0576L93.8319 15.1329C93.982 14.4237 93.9788 13.7956 93.8225 13.2484C93.6661 12.7013 93.384 12.2484 92.976 11.8899C92.5856 11.52 92.1009 11.2738 91.5221 11.1513C90.9432 11.0288 90.3931 11.056 89.8718 11.2329C89.3536 11.3954 88.9034 11.7008 88.5212 12.1491C88.1566 12.586 87.9008 13.1518 87.7538 13.8465L86.2882 20.7712L84.6601 20.4266Z" fill="white"/>
<path d="M103.071 26.5688C102.068 26.0619 101.277 25.3642 100.699 24.4757C100.128 23.5739 99.8085 22.584 99.7405 21.5059C99.6924 20.4213 99.9386 19.3445 100.479 18.2757C101.013 17.22 101.727 16.3965 102.623 15.8053C103.518 15.2141 104.489 14.8844 105.534 14.8162C106.599 14.7414 107.646 14.9642 108.675 15.4844C109.705 16.0046 110.502 16.7056 111.067 17.5875C111.645 18.4761 111.955 19.4527 111.996 20.5175C112.051 21.5889 111.808 22.6591 111.268 23.7279C110.721 24.81 109.989 25.6499 109.074 26.2477C108.165 26.8322 107.182 27.1553 106.123 27.2168C105.078 27.285 104.061 27.069 103.071 26.5688ZM103.822 25.0843C104.534 25.4444 105.264 25.5898 106.012 25.5203C106.773 25.4574 107.475 25.1993 108.118 24.7458C108.775 24.299 109.297 23.693 109.684 22.9276C110.071 22.1623 110.246 21.3894 110.21 20.609C110.187 19.8352 109.975 19.1235 109.575 18.4737C109.187 17.8307 108.637 17.3291 107.925 16.9689C107.212 16.6087 106.475 16.4601 105.715 16.5229C104.967 16.5924 104.268 16.844 103.618 17.2776C102.968 17.7112 102.45 18.3106 102.063 19.076C101.676 19.8413 101.497 20.6208 101.527 21.4144C101.556 22.208 101.764 22.9264 102.152 23.5694C102.552 24.2192 103.109 24.7241 103.822 25.0843Z" fill="white"/>
<path d="M115.408 33.8511L131.751 27.3265L133.024 28.7486L124.729 44.2687L123.486 42.8797L125.549 39.1287L120.622 33.6223L116.651 35.2401L115.408 33.8511ZM122.247 32.9426L126.375 37.556L131.218 28.7268L131.573 29.1237L122.247 32.9426Z" fill="white"/>
<path d="M126.293 47.3683L136.708 41.6278L137.512 43.0853L135.802 44.0278L135.947 43.6942C136.575 43.669 137.167 43.8241 137.724 44.1593C138.287 44.5075 138.765 45.0378 139.158 45.7503L139.522 46.411L138.064 47.2143L137.561 46.3009C137.147 45.5495 136.582 45.0757 135.866 44.8793C135.149 44.6829 134.364 44.8203 133.509 45.2915L127.096 48.8257L126.293 47.3683Z" fill="white"/>
<path d="M131.633 60.4407C131.328 59.374 131.307 58.3337 131.571 57.3197C131.853 56.3159 132.378 55.435 133.146 54.6769C133.914 53.9188 134.874 53.375 136.026 53.0456C137.178 52.7161 138.264 52.6671 139.284 52.8984C140.318 53.1258 141.209 53.5786 141.957 54.2571C142.709 54.9498 143.234 55.8152 143.531 56.8534C143.767 57.6783 143.82 58.4555 143.69 59.185C143.578 59.9246 143.324 60.5972 142.928 61.2028C142.547 61.8044 142.063 62.3196 141.478 62.7484C140.907 63.1732 140.28 63.4833 139.598 63.6785C139.456 63.7192 139.29 63.7588 139.101 63.7975C138.926 63.8321 138.742 63.8616 138.549 63.886L135.786 54.2221L137.279 53.795L139.78 62.5416L138.921 61.9566C139.739 61.8609 140.41 61.5692 140.932 61.0814C141.472 60.6038 141.839 60.0297 142.032 59.3591C142.239 58.6845 142.241 57.9916 142.037 57.2805C141.834 56.5694 141.46 55.9609 140.915 55.4551C140.375 54.9636 139.721 54.6427 138.955 54.4925C138.204 54.3383 137.383 54.4269 136.493 54.7583C135.562 54.9475 134.806 55.3175 134.225 55.8683C133.663 56.4292 133.286 57.0755 133.095 57.807C132.908 58.5528 132.919 59.2883 133.126 60.0136C133.366 60.8527 133.767 61.4998 134.328 61.9548C134.889 62.4098 135.518 62.7296 136.217 62.9144L135.883 64.4871C135.306 64.406 134.729 64.1938 134.154 63.8506C133.593 63.5033 133.084 63.0411 132.627 62.4642C132.188 61.8974 131.857 61.2229 131.633 60.4407Z" fill="white"/>
<path d="M134.131 78.0866L151.244 76.3705L150.923 78.1388L135.628 79.5313L135.695 79.1601L149.503 85.9542L149.165 87.8098L133.854 89.2897L133.926 88.8967L147.749 95.6035L147.428 97.3718L132.013 89.7443L132.35 87.8887L147.734 86.3771L147.663 86.77L133.794 79.9422L134.131 78.0866Z" fill="white"/>
<path d="M126.656 100.788C127.205 99.8238 127.933 99.0809 128.842 98.5597C129.757 98.0587 130.753 97.817 131.832 97.8349C132.911 97.8527 133.971 98.1577 135.013 98.7499C136.054 99.3421 136.85 100.083 137.398 100.974C137.96 101.872 138.26 102.825 138.299 103.834C138.33 104.856 138.079 105.836 137.546 106.775C137.122 107.521 136.604 108.103 135.992 108.521C135.385 108.959 134.727 109.248 134.018 109.389C133.321 109.537 132.614 109.553 131.899 109.435C131.196 109.325 130.536 109.094 129.918 108.743C129.79 108.67 129.645 108.579 129.486 108.472C129.339 108.371 129.189 108.26 129.036 108.139L134.004 99.4016L135.354 100.169L130.858 108.078L130.674 107.054C131.316 107.572 131.993 107.847 132.707 107.878C133.426 107.93 134.093 107.79 134.707 107.458C135.334 107.134 135.83 106.65 136.196 106.007C136.561 105.365 136.734 104.672 136.714 103.928C136.687 103.198 136.458 102.507 136.03 101.855C135.614 101.21 134.976 100.686 134.116 100.282C133.33 99.7499 132.536 99.469 131.736 99.4396C130.942 99.4303 130.217 99.6135 129.561 99.9893C128.897 100.378 128.379 100.9 128.006 101.556C127.575 102.315 127.393 103.053 127.461 103.773C127.528 104.492 127.741 105.165 128.098 105.794L126.741 106.656C126.395 106.187 126.143 105.627 125.986 104.976C125.841 104.332 125.815 103.645 125.907 102.914C126.004 102.204 126.254 101.495 126.656 100.788Z" fill="white"/>
<path d="M34.6898 32.8863C35.6489 33.8983 37.2468 33.9412 38.2588 32.9821L43.3459 28.1608C44.3579 27.2017 44.4008 25.6038 43.4417 24.5918L38.6204 19.5046C37.6613 18.4926 36.0634 18.4497 35.0514 19.4089L29.9642 24.2302C28.9522 25.1893 28.9094 26.7872 29.8685 27.7992L34.6898 32.8863Z" fill="white"/>
<path d="M114.034 130.985C114.993 131.997 116.591 132.04 117.603 131.081L122.69 126.259C123.702 125.3 123.745 123.702 122.785 122.69L117.964 117.603C117.005 116.591 115.407 116.548 114.395 117.507L109.308 122.329C108.296 123.288 108.253 124.886 109.212 125.898L114.034 130.985Z" fill="white"/>
</g>
<defs>
<clipPath id="clip0_406_325">
<rect width="154" height="149.46" fill="white"/>
</clipPath>
</defs>
</svg>
