<svg width="60" height="35" viewBox="0 0 60 35" fill="none" xmlns="http://www.w3.org/2000/svg">
<mask id="mask0_406_359" style="mask-type:luminance" maskUnits="userSpaceOnUse" x="0" y="0" width="60" height="35">
<path d="M60 0H0V34.1176H60V0Z" fill="white"/>
</mask>
<g mask="url(#mask0_406_359)">
<path d="M29.5222 33.7785C24.9128 33.7785 20.3034 33.8746 15.694 33.7785C11.4287 33.4964 7.4406 31.5538 4.57613 28.3629C1.71166 25.1721 0.196302 20.9842 0.351692 16.6882C0.507082 12.3921 2.32099 8.32601 5.40841 5.35292C8.49583 2.37983 12.6137 0.73376 16.8881 0.764084H42.4308C46.4626 0.740644 50.3622 2.20881 53.3875 4.88917C56.4128 7.56953 58.3526 11.275 58.8378 15.3003C59.323 19.3257 58.3197 23.39 56.0188 26.7197C53.7179 30.0494 50.2801 32.4121 46.3596 33.3582C44.8948 33.6668 43.4019 33.8197 41.9054 33.8145C37.7737 33.8145 33.6539 33.8145 29.5222 33.8145V33.7785ZM29.5222 32.9138C33.7255 32.9138 37.8811 32.9138 42.1204 32.9138C43.168 32.9183 44.2142 32.838 45.249 32.6736C49.179 32.074 52.7306 29.9812 55.1718 26.8263C57.6131 23.6715 58.758 19.695 58.3707 15.7164C57.9834 11.7377 56.0933 8.06013 53.0899 5.4414C50.0866 2.82267 46.1988 1.46235 42.2278 1.64079C33.8688 1.64079 25.4263 1.64079 17.0314 1.64079C16.0969 1.64501 15.1636 1.70919 14.2371 1.83294C10.2993 2.36449 6.71393 4.39432 4.21939 7.50446C1.72485 10.6146 0.510993 14.5683 0.827775 18.5515C1.14456 22.5346 2.96785 26.244 5.92224 28.9158C8.87662 31.5877 12.7372 33.0185 16.709 32.9138H29.5222Z" fill="white"/>
<path d="M29.4737 28.361H21.7118C18.998 28.3147 16.3967 27.2629 14.4062 25.4073C12.4156 23.5517 11.1758 21.0226 10.9244 18.3047C10.6729 15.5868 11.4274 12.8711 13.0434 10.678C14.6593 8.4849 17.0231 6.96853 19.6818 6.41944C20.5991 6.24623 21.5308 6.16177 22.4641 6.16724C27.2407 6.16724 32.0173 6.25131 36.7938 6.16724C38.2551 6.10785 39.7136 6.34155 41.0842 6.85472C42.4549 7.36788 43.7102 8.15026 44.7772 9.15625C45.8442 10.1622 46.7014 11.3717 47.2989 12.7142C47.8964 14.0568 48.2223 15.5054 48.2576 16.9759C48.3839 19.8564 47.3683 22.6695 45.4338 24.7974C43.4993 26.9254 40.8041 28.1941 37.9402 28.325C35.0981 28.4571 32.28 28.361 29.4737 28.361ZM21.9387 26.3434C23.1173 26.3561 24.2867 26.1343 25.3798 25.691C26.4729 25.2476 27.468 24.5913 28.3081 23.7599C29.1481 22.9284 29.8165 21.9382 30.2747 20.8461C30.733 19.754 30.9721 18.5816 30.9783 17.3962C30.9783 14.9978 30.031 12.6976 28.3447 11.0017C26.6584 9.30576 24.3713 8.35299 21.9865 8.35299C19.6017 8.35299 17.3145 9.30576 15.6282 11.0017C13.9419 12.6976 12.9946 14.9978 12.9946 17.3962C12.9961 18.5748 13.2289 19.7415 13.6795 20.8294C14.1301 21.9173 14.7898 22.9052 15.6206 23.7363C16.4515 24.5675 17.4372 25.2256 18.5214 25.6729C19.6056 26.1203 20.7668 26.3481 21.9387 26.3434Z" fill="white"/>
</g>
</svg>
